<svg id="Layer_1" data-name="Layer 1" xmlns="http://www.w3.org/2000/svg" viewBox="0 0 1000 192.13"><defs><style>.cls-1{fill:#fff;}</style></defs><path class="cls-1" d="M249.41,127.21h53.42a2,2,0,0,1,2,2v57.51a2,2,0,0,0,3.56,1.36c8.88-9.63,21.68-17.58,38.75-17.58,29.14,0,47.38,19.25,47.38,50.41v89.17a2,2,0,0,1-2,2H339.09a2,2,0,0,1-2-2V239.45c0-11.91-7.09-18.75-15.71-18.75s-16.47,6.84-16.47,18.75v70.67a2,2,0,0,1-2,2H249.41a2,2,0,0,1-2-2V129.25A2,2,0,0,1,249.41,127.21Z" transform="translate(-100 -127.21)"/><path class="cls-1" d="M1001.21,173.83h53.43a2,2,0,0,1,2,2v17a2,2,0,0,0,3.8,1c7.72-13.7,19.23-22.29,37.47-22.11a2.05,2.05,0,0,1,2,2v57a2,2,0,0,1-2,2h-4c-24.32,0-37.24,13.43-37.24,44.08v33.18a2,2,0,0,1-2,2h-53.43a2,2,0,0,1-2-2V175.87A2,2,0,0,1,1001.21,173.83Z" transform="translate(-100 -127.21)"/><path class="cls-1" d="M979.48,189.54c-12.16-12.16-30.4-18-58.53-18-23.2,0-41,3.77-56.53,9.48a2,2,0,0,0-1.26,2.44l9.08,34.27a2,2,0,0,0,2.71,1.38c11.43-4.34,22.76-7,36.12-7,17.74,0,25.59,7.35,25.59,20a1.6,1.6,0,0,1-2.09,1.52c-7-2.26-20.11-4.31-30.59-4.31-32.17,0-52.69,15.46-52.69,43.07v.51c0,27.36,18.74,42.56,45.34,42.56,15.27,0,27.15-5.37,36.35-13.81a2,2,0,0,1,3.43,1.49v7a2,2,0,0,0,2,2h53.43a2,2,0,0,0,2-2V233.37C993.92,213.35,989.86,199.92,979.48,189.54Zm-59.65,95.18a17.34,17.34,0,1,1,17.34-17.34A17.34,17.34,0,0,1,919.83,284.72Z" transform="translate(-100 -127.21)"/><path class="cls-1" d="M850.1,127.21H796.67a2,2,0,0,0-2,2v55.19a2,2,0,0,1-3.47,1.45c-8.46-8.37-19.68-15.35-38.08-15.35-32.68,0-59,29.13-59,73V244c0,42.31,26.1,71.44,59.54,71.44,21,0,31.67-10.13,41-20.27v14.94a2,2,0,0,0,2,2H850.1a2,2,0,0,0,2-2V129.25A2,2,0,0,0,850.1,127.21ZM775.2,261.26a20.4,20.4,0,1,1,20.4-20.4A20.4,20.4,0,0,1,775.2,261.26Z" transform="translate(-100 -127.21)"/><path class="cls-1" d="M692,127.21H638.56a2,2,0,0,0-2,2v55.19a2,2,0,0,1-3.47,1.44c-8.45-8.36-19.68-15.34-38.08-15.34-32.68,0-59,29.13-59,73V244c0,42.31,26.09,71.44,59.53,71.44,21,0,31.67-10.13,41-20.27v14.94a2,2,0,0,0,2,2H692a2,2,0,0,0,2-2V129.25A2,2,0,0,0,692,127.21ZM618.11,261.26a20.4,20.4,0,1,1,20.4-20.4A20.41,20.41,0,0,1,618.11,261.26Z" transform="translate(-100 -127.21)"/><path class="cls-1" d="M531.26,282.81l-27.89-22.17a2,2,0,0,0-2.71.16c-8.65,8.53-16.94,12.9-26.84,12.9-11.39,0-20.43-5.34-25-15.61a2.05,2.05,0,0,1,1.87-2.89h85.94c.26-3,.26-6.58.26-9.63,0-42-22.8-76.25-72-76.25-41.54,0-71.19,31.41-71.19,72.71v.51c0,43.06,30.66,71.69,76,71.69,29,0,48.21-11.67,61.82-28.55A2,2,0,0,0,531.26,282.81ZM468.2,212.32a19.08,19.08,0,0,1,18.94,16.85,2,2,0,0,1-2,2.22H451.29a2,2,0,0,1-2-2.22A19.08,19.08,0,0,1,468.2,212.32Z" transform="translate(-100 -127.21)"/><path class="cls-1" d="M199,254.83a2,2,0,0,0-2.69.63c-5.28,7.89-11,12.36-20.51,12.36-10.91,0-19.71-9.52-20.45-23,0-.61-.08-1.22-.08-1.85v-.5c0-13.68,9.13-24.33,21.29-24.33,8.75,0,14.63,4.42,19.29,12.22a2,2,0,0,0,2.74.72l37.91-21.39h0a2,2,0,0,0,.8-2.6c-10.9-21.64-32.11-36.58-61.76-36.58-45.1,0-75.5,33.7-75.5,72.46v.51c0,.6,0,1.19,0,1.79.93,38,31.27,70.17,72.68,70.17,13.91,0,25.69-2.65,35.6-7.42a2,2,0,0,0,1.08-2.48,12.61,12.61,0,0,1-.74-4.3,14.74,14.74,0,0,1,13.23-14.4,12.4,12.4,0,0,1,7.78,1.85,2,2,0,0,0,2.69-.47,80.3,80.3,0,0,0,5-7.45l.76-1.28a2,2,0,0,0-.75-2.81Z" transform="translate(-100 -127.21)"/><path class="cls-1" d="M233.69,299.05a14.75,14.75,0,0,0-13.25,14.4,12.32,12.32,0,0,0,1.46,5.89,65.42,65.42,0,0,0,21-17.33A12.16,12.16,0,0,0,233.69,299.05Z" transform="translate(-100 -127.21)"/></svg>